<mxfile host="Electron" modified="2024-02-14T03:12:21.699Z" agent="Mozilla/5.0 (Macintosh; Intel Mac OS X 10_15_7) AppleWebKit/537.36 (KHTML, like Gecko) draw.io/23.0.2 Chrome/120.0.6099.109 Electron/28.1.0 Safari/537.36" etag="ll2luGSlVN8zeQQs_rIN" version="23.0.2" type="device">
  <diagram name="페이지-1" id="LmJZ7FEVwzEiLVlS9fdx">
    <mxGraphModel dx="1941" dy="894" grid="1" gridSize="10" guides="1" tooltips="1" connect="1" arrows="1" fold="1" page="1" pageScale="1" pageWidth="827" pageHeight="1169" math="0" shadow="0">
      <root>
        <mxCell id="0" />
        <mxCell id="1" parent="0" />
        <mxCell id="qC-vUFkhH_XHyiGEOv9Y-6" style="edgeStyle=orthogonalEdgeStyle;rounded=0;orthogonalLoop=1;jettySize=auto;html=1;entryX=0;entryY=0.5;entryDx=0;entryDy=0;dashed=1;endArrow=block;endFill=0;" edge="1" parent="1" source="qC-vUFkhH_XHyiGEOv9Y-1" target="qC-vUFkhH_XHyiGEOv9Y-3">
          <mxGeometry relative="1" as="geometry" />
        </mxCell>
        <mxCell id="qC-vUFkhH_XHyiGEOv9Y-1" value="UserDetailsService" style="rounded=0;whiteSpace=wrap;html=1;" vertex="1" parent="1">
          <mxGeometry x="120" y="120" width="150" height="40" as="geometry" />
        </mxCell>
        <mxCell id="qC-vUFkhH_XHyiGEOv9Y-5" style="edgeStyle=orthogonalEdgeStyle;rounded=0;orthogonalLoop=1;jettySize=auto;html=1;entryX=0.5;entryY=1;entryDx=0;entryDy=0;endArrow=block;endFill=1;" edge="1" parent="1" source="qC-vUFkhH_XHyiGEOv9Y-2" target="qC-vUFkhH_XHyiGEOv9Y-1">
          <mxGeometry relative="1" as="geometry" />
        </mxCell>
        <mxCell id="qC-vUFkhH_XHyiGEOv9Y-2" value="UserDetailsManager" style="rounded=0;whiteSpace=wrap;html=1;" vertex="1" parent="1">
          <mxGeometry x="120" y="240" width="150" height="40" as="geometry" />
        </mxCell>
        <mxCell id="qC-vUFkhH_XHyiGEOv9Y-3" value="UserDetails" style="rounded=0;whiteSpace=wrap;html=1;" vertex="1" parent="1">
          <mxGeometry x="360" y="120" width="150" height="40" as="geometry" />
        </mxCell>
        <mxCell id="qC-vUFkhH_XHyiGEOv9Y-4" value="GrantedAuthority" style="rounded=0;whiteSpace=wrap;html=1;" vertex="1" parent="1">
          <mxGeometry x="600" y="120" width="150" height="40" as="geometry" />
        </mxCell>
        <mxCell id="qC-vUFkhH_XHyiGEOv9Y-9" style="edgeStyle=orthogonalEdgeStyle;rounded=0;orthogonalLoop=1;jettySize=auto;html=1;curved=1;fillColor=#d5e8d4;strokeColor=#82b366;" edge="1" parent="1" source="qC-vUFkhH_XHyiGEOv9Y-8">
          <mxGeometry relative="1" as="geometry">
            <mxPoint x="300" y="140" as="targetPoint" />
          </mxGeometry>
        </mxCell>
        <mxCell id="qC-vUFkhH_XHyiGEOv9Y-8" value="UserDetailsService 는 UserDetails 계약을 이용함" style="text;html=1;strokeColor=#82b366;fillColor=#d5e8d4;align=center;verticalAlign=middle;whiteSpace=wrap;rounded=1;" vertex="1" parent="1">
          <mxGeometry x="230" y="30" width="170" height="40" as="geometry" />
        </mxCell>
        <mxCell id="qC-vUFkhH_XHyiGEOv9Y-11" style="edgeStyle=orthogonalEdgeStyle;rounded=0;orthogonalLoop=1;jettySize=auto;html=1;curved=1;fillColor=#d5e8d4;strokeColor=#82b366;" edge="1" parent="1" source="qC-vUFkhH_XHyiGEOv9Y-10">
          <mxGeometry relative="1" as="geometry">
            <mxPoint x="190" y="220" as="targetPoint" />
          </mxGeometry>
        </mxCell>
        <mxCell id="qC-vUFkhH_XHyiGEOv9Y-10" value="UserDetailsManager 는 UserDetailsService 계약을 확장함" style="text;html=1;strokeColor=#82b366;fillColor=#d5e8d4;align=center;verticalAlign=middle;whiteSpace=wrap;rounded=1;" vertex="1" parent="1">
          <mxGeometry x="-80" y="180" width="180" height="40" as="geometry" />
        </mxCell>
        <mxCell id="qC-vUFkhH_XHyiGEOv9Y-7" style="edgeStyle=orthogonalEdgeStyle;rounded=0;orthogonalLoop=1;jettySize=auto;html=1;entryX=1;entryY=0.5;entryDx=0;entryDy=0;endArrow=diamond;endFill=1;" edge="1" parent="1" source="qC-vUFkhH_XHyiGEOv9Y-4" target="qC-vUFkhH_XHyiGEOv9Y-3">
          <mxGeometry relative="1" as="geometry" />
        </mxCell>
        <mxCell id="qC-vUFkhH_XHyiGEOv9Y-13" value="*" style="edgeLabel;html=1;align=center;verticalAlign=middle;resizable=0;points=[];fontSize=15;" vertex="1" connectable="0" parent="qC-vUFkhH_XHyiGEOv9Y-7">
          <mxGeometry x="-0.7111" y="1" relative="1" as="geometry">
            <mxPoint x="5" y="-5" as="offset" />
          </mxGeometry>
        </mxCell>
        <mxCell id="qC-vUFkhH_XHyiGEOv9Y-12" value="1" style="edgeLabel;html=1;align=center;verticalAlign=middle;resizable=0;points=[];" vertex="1" connectable="0" parent="qC-vUFkhH_XHyiGEOv9Y-7">
          <mxGeometry x="0.2222" y="4" relative="1" as="geometry">
            <mxPoint x="-27" y="-13" as="offset" />
          </mxGeometry>
        </mxCell>
        <mxCell id="qC-vUFkhH_XHyiGEOv9Y-15" style="edgeStyle=orthogonalEdgeStyle;rounded=0;orthogonalLoop=1;jettySize=auto;html=1;curved=1;fillColor=#d5e8d4;strokeColor=#82b366;" edge="1" parent="1" source="qC-vUFkhH_XHyiGEOv9Y-14">
          <mxGeometry relative="1" as="geometry">
            <mxPoint x="540" y="140" as="targetPoint" />
          </mxGeometry>
        </mxCell>
        <mxCell id="qC-vUFkhH_XHyiGEOv9Y-14" value="UserDetails 는 &lt;br&gt;하나 이상의 권한을 가짐" style="text;html=1;strokeColor=#82b366;fillColor=#d5e8d4;align=center;verticalAlign=middle;whiteSpace=wrap;rounded=1;" vertex="1" parent="1">
          <mxGeometry x="480" y="30" width="170" height="40" as="geometry" />
        </mxCell>
      </root>
    </mxGraphModel>
  </diagram>
</mxfile>
